<?xml version="1.0" encoding="utf-8"?>
<!-- Uploaded to: SVG Repo, www.svgrepo.com, Generator: SVG Repo Mixer Tools -->
<svg fill="#000000" width="800px" height="800px" viewBox="0 0 32 32" version="1.1" xmlns="http://www.w3.org/2000/svg">
<title>arrow-up-right</title>
<path d="M26.595 5.826l-0.001-0.013-0.002-0.002c-0.056-0.121-0.139-0.221-0.243-0.296l-0.002-0.002c-0.022-0.017-0.046-0.034-0.072-0.049l-0.003-0.002c-0.105-0.068-0.233-0.109-0.371-0.113l-0.001-0h-14.143c-0.414 0-0.75 0.336-0.75 0.75s0.336 0.75 0.75 0.75v0h12.332l-18.52 18.519c-0.136 0.136-0.22 0.324-0.22 0.531 0 0.415 0.336 0.751 0.751 0.751 0.207 0 0.394-0.084 0.53-0.219v0l18.52-18.52v12.33c0 0.414 0.336 0.75 0.75 0.75s0.75-0.336 0.75-0.75v0-14.142c-0.001-0.099-0.021-0.193-0.057-0.279l0.002 0.005z"></path>
</svg>